<svg width="16" height="16" viewBox="0 0 16 16" fill="none" xmlns="http://www.w3.org/2000/svg">
<g clip-path="url(#clip0)">
<path fill-rule="evenodd" clip-rule="evenodd" d="M13.2895 1C14.2336 1 15 1.76645 15 2.71046V13.2895C15 14.2336 14.2336 15 13.2895 15H2.71046C1.76645 15 1 14.2336 1 13.2895V2.71046C1 1.76645 1.76642 1 2.71046 1H13.2895V1ZM13.4603 10.0414C13.4854 9.66338 13.4546 9.30249 13.3671 8.95689C13.2788 8.61078 13.1372 8.30218 12.9389 8.03243C12.7403 7.76214 12.4874 7.54623 12.1794 7.38676C11.8697 7.22521 11.5091 7.146 11.097 7.146C10.7236 7.146 10.3866 7.21228 10.0808 7.34405C9.77535 7.47659 9.51309 7.65782 9.29175 7.88745C9.07092 8.11577 8.90264 8.38812 8.78148 8.70372C8.6624 9.01825 8.60156 9.35844 8.60156 9.72268C8.60156 10.0993 8.66008 10.447 8.77632 10.7611C8.89384 11.0766 9.05875 11.3454 9.27105 11.5727C9.48903 11.7992 9.74789 11.9726 10.0578 12.0966C10.3679 12.2188 10.7133 12.281 11.097 12.281C11.6476 12.281 12.1198 12.1549 12.5073 11.902C12.8996 11.6498 13.1867 11.2312 13.3762 10.6448H12.1977C12.1521 10.7955 12.0341 10.9407 11.8402 11.0766C11.6445 11.2128 11.4115 11.2809 11.1417 11.2809C10.7663 11.2809 10.4767 11.1825 10.276 10.9868C10.0751 10.7911 9.94518 10.4266 9.94518 10.0414H13.4603V10.0414ZM5.79164 12.1549C6.09351 12.1549 6.38787 12.1168 6.67131 12.0418C6.95818 11.9664 7.21368 11.8504 7.43658 11.6928C7.65768 11.5364 7.83709 11.3337 7.96886 11.0836C8.09959 10.8364 8.16483 10.5428 8.16483 10.2016C8.16483 9.78068 8.06464 9.42185 7.86038 9.1218C7.65716 8.82384 7.35012 8.61439 6.93668 8.49531C7.24036 8.35137 7.46792 8.16628 7.62271 7.94053C7.77677 7.71426 7.85338 7.4313 7.85338 7.09268C7.85338 6.77968 7.80187 6.51485 7.6996 6.30335C7.59449 6.08873 7.44771 5.91837 7.2603 5.79021C7.06974 5.66208 6.84478 5.56862 6.58072 5.5127C6.31535 5.45498 6.02488 5.42728 5.7031 5.42728H2.53125V12.1549H5.79164V12.1549ZM5.62284 9.1565C5.94154 9.1565 6.20067 9.22976 6.39536 9.37733C6.58925 9.52671 6.68712 9.77316 6.68712 10.1198C6.68712 10.2966 6.65838 10.4432 6.59858 10.556C6.53902 10.6694 6.45672 10.759 6.35782 10.8242C6.25839 10.8921 6.14112 10.9381 6.00858 10.9669C5.8781 10.9961 5.73933 11.0091 5.59359 11.0091H4.01232V9.1565H5.62284ZM11.8136 8.42722C11.6543 8.25145 11.3853 8.15616 11.0568 8.15616C10.843 8.15616 10.6662 8.19214 10.5243 8.26543C10.3855 8.33791 10.2722 8.42774 10.1854 8.53389C10.099 8.64157 10.0404 8.75548 10.006 8.87716C9.97184 8.99572 9.95114 9.10316 9.94518 9.19818H12.1219C12.09 8.85698 11.9733 8.60457 11.8136 8.42722V8.42722ZM5.39838 6.57334C5.52966 6.57337 5.6573 6.58266 5.77947 6.60648C5.90347 6.62797 6.01066 6.66732 6.10541 6.72455C6.20067 6.77968 6.27652 6.85813 6.33373 6.95859C6.38888 7.05902 6.41606 7.18846 6.41606 7.34482C6.41606 7.627 6.33373 7.8323 6.1634 7.95682C5.99125 8.08315 5.77378 8.1453 5.51153 8.1453H4.01232V6.57334H5.39838V6.57334ZM12.3984 6.54255V5.87875H9.67128V6.54255H12.3984Z" fill="white"/>
</g>
<defs>
<clipPath id="clip0">
<rect width="14" height="14" fill="white" transform="translate(1 1)"/>
</clipPath>
</defs>
</svg>
