<svg width="16" height="16" viewBox="0 0 16 16" fill="none" xmlns="http://www.w3.org/2000/svg">
<path d="M8 1C4.14018 1 1 4.14018 1 8C1 11.8598 4.14018 15 8 15C11.8598 15 15 11.8598 15 8C15 4.14018 11.8598 1 8 1ZM12.6282 4.22807C13.4609 5.2455 13.9652 6.54137 13.9784 7.95261C13.7812 7.91092 11.8045 7.50997 9.815 7.76017C9.65265 7.36385 9.49941 7.0152 9.28952 6.58558C11.5002 5.683 12.5021 4.39858 12.6282 4.22807V4.22807ZM11.9635 3.53665C11.856 3.68983 10.9559 4.89956 8.82984 5.69646C7.85006 3.89633 6.76413 2.41753 6.59887 2.19624C8.49497 1.73918 10.4931 2.23208 11.9635 3.53665V3.53665ZM5.45801 2.59815C5.61565 2.81433 6.68408 4.29497 7.67478 6.05606C4.87797 6.79877 2.41462 6.78807 2.14721 6.78454C2.53492 4.92917 3.78527 3.38714 5.45801 2.59815ZM2.02093 8.00912C2.02093 7.94798 2.02214 7.88712 2.02398 7.82641C2.28557 7.83177 5.18301 7.86912 8.1689 6.97552C8.34006 7.3105 8.50358 7.65054 8.65365 7.99021C6.49158 8.59918 4.52721 10.3478 3.55802 12.0069C2.60306 10.9469 2.02093 9.5448 2.02093 8.00912ZM4.33 12.726C4.95455 11.4493 6.64954 9.8012 9.06005 8.97887C9.89948 11.1602 10.2466 12.9884 10.3355 13.513C8.41303 14.3319 6.10125 14.1072 4.33 12.726V12.726ZM11.3407 12.9656C11.2794 12.6019 10.9612 10.8516 10.1792 8.7026C12.0528 8.40267 13.6989 8.89363 13.9035 8.95818C13.637 10.6218 12.6821 12.0586 11.3407 12.9656Z" fill="white"/>
</svg>
