<svg width="16" height="16" viewBox="0 0 16 16" fill="none" xmlns="http://www.w3.org/2000/svg">
<path fill-rule="evenodd" clip-rule="evenodd" d="M8.00002 1C4.13452 1 1 4.13386 1 7.99998C1 11.0928 3.00574 13.7166 5.78704 14.6423C6.13684 14.707 6.26532 14.4904 6.26532 14.3055C6.26532 14.1387 6.25889 13.5872 6.25585 13.0022C4.30844 13.4257 3.89751 12.1763 3.89751 12.1763C3.57905 11.3673 3.12031 11.1521 3.12031 11.1521C2.48514 10.7176 3.16819 10.7266 3.16819 10.7266C3.87103 10.7759 4.24121 11.448 4.24121 11.448C4.86553 12.5181 5.87875 12.2087 6.27826 12.0298C6.3411 11.5775 6.52243 11.2686 6.72268 11.0938C5.16787 10.9168 3.53337 10.3166 3.53337 7.63435C3.53337 6.87018 3.80685 6.2457 4.25468 5.75547C4.182 5.57909 3.94237 4.86718 4.3225 3.90292C4.3225 3.90292 4.91034 3.7149 6.24791 4.62055C6.80632 4.46543 7.40518 4.38765 8.00005 4.38495C8.5949 4.38765 9.19418 4.46543 9.75359 4.62055C11.0897 3.7149 11.6767 3.90292 11.6767 3.90292C12.0577 4.86718 11.8181 5.57909 11.7454 5.75547C12.1942 6.2457 12.4658 6.87015 12.4658 7.63435C12.4658 10.323 10.8282 10.9149 9.26944 11.0882C9.52051 11.3055 9.74418 11.7315 9.74418 12.3845C9.74418 13.3211 9.73617 14.0749 9.73617 14.3055C9.73617 14.4918 9.86214 14.7101 10.2169 14.6414C12.9968 13.7148 15 11.0918 15 7.99998C15 4.13386 11.8659 1 8.00002 1Z" fill="white"/>
<path d="M3.65135 11.0505C3.63595 11.0853 3.58117 11.0957 3.53135 11.0719C3.48053 11.049 3.45212 11.0016 3.46852 10.9667C3.48358 10.9309 3.53834 10.921 3.58908 10.9449C3.63992 10.9677 3.66891 11.0156 3.65135 11.0505Z" fill="white"/>
<path d="M3.93495 11.3667C3.90159 11.3976 3.83623 11.3832 3.79195 11.3343C3.7461 11.2855 3.73763 11.2202 3.77151 11.1889C3.80593 11.158 3.86922 11.1724 3.91504 11.2212C3.96091 11.2706 3.96982 11.3354 3.93495 11.3667Z" fill="white"/>
<path d="M4.21086 11.7698C4.16795 11.7997 4.09777 11.7717 4.0544 11.7094C4.01148 11.6472 4.01149 11.5725 4.0554 11.5426C4.09877 11.5127 4.16796 11.5396 4.21187 11.6013C4.25467 11.6646 4.25466 11.7394 4.21086 11.7698Z" fill="white"/>
<path d="M4.58894 12.1594C4.55054 12.2017 4.46879 12.1903 4.40905 12.1325C4.3478 12.0762 4.33082 11.996 4.36919 11.9537C4.40815 11.9114 4.49034 11.9232 4.55053 11.9805C4.61132 12.0369 4.62978 12.1175 4.58894 12.1594Z" fill="white"/>
<path d="M5.11053 12.3855C5.09357 12.4402 5.01491 12.4651 4.93564 12.4418C4.85641 12.4178 4.80469 12.3536 4.82064 12.2983C4.83704 12.2431 4.91614 12.2171 4.99594 12.242C5.07509 12.2659 5.12693 12.3296 5.11053 12.3855Z" fill="white"/>
<path d="M5.68346 12.4274C5.68537 12.4851 5.61813 12.533 5.53494 12.534C5.45127 12.536 5.38345 12.4892 5.38257 12.4324C5.38257 12.3741 5.44829 12.3267 5.53199 12.3253C5.61518 12.3237 5.68346 12.3701 5.68346 12.4274Z" fill="white"/>
<path d="M6.21648 12.3367C6.22643 12.393 6.16854 12.4508 6.0859 12.4662C6.00464 12.4812 5.92949 12.4463 5.91909 12.3905C5.90903 12.3328 5.96785 12.2749 6.04905 12.26C6.13181 12.2456 6.20594 12.2794 6.21648 12.3367Z" fill="white"/>
</svg>
