<svg width="16" height="16" viewBox="0 0 16 16" fill="none" xmlns="http://www.w3.org/2000/svg">
<path d="M7.82666 1C5.97264 1 5.74016 1.00786 5.01203 1.04108C4.28541 1.07425 3.78916 1.18963 3.35491 1.3584C2.90599 1.53286 2.52529 1.76629 2.14577 2.1458C1.76626 2.52531 1.53284 2.90602 1.35838 3.35493C1.18961 3.78916 1.07422 4.28541 1.04105 5.01203C1.00783 5.74016 1 5.97264 1 7.82666C1 9.68065 1.00783 9.91312 1.04105 10.6413C1.07422 11.3679 1.18961 11.8641 1.35838 12.2984C1.53284 12.7473 1.76626 13.128 2.14577 13.5075C2.52529 13.887 2.90599 14.1204 3.35491 14.2949C3.78916 14.4636 4.28541 14.5791 5.01203 14.6122C5.74016 14.6454 5.97264 14.6533 7.82666 14.6533C9.68065 14.6533 9.91312 14.6454 10.6413 14.6122C11.3679 14.5791 11.8641 14.4636 12.2984 14.2949C12.7473 14.1204 13.128 13.887 13.5075 13.5075C13.887 13.128 14.1204 12.7473 14.2949 12.2984C14.4636 11.8641 14.5791 11.3679 14.6122 10.6413C14.6454 9.91312 14.6533 9.68065 14.6533 7.82666C14.6533 5.97264 14.6454 5.74016 14.6122 5.01203C14.5791 4.28541 14.4636 3.78916 14.2949 3.35493C14.1204 2.90602 13.887 2.52531 13.5075 2.1458C13.128 1.76629 12.7473 1.53286 12.2984 1.3584C11.8641 1.18963 11.3679 1.07425 10.6413 1.04108C9.91312 1.00786 9.68065 1 7.82666 1ZM7.82666 2.23005C9.64943 2.23005 9.86535 2.23699 10.5852 2.26983C11.2508 2.30021 11.6122 2.41142 11.8528 2.50488C12.1715 2.62872 12.3989 2.77668 12.6377 3.01555C12.8766 3.25442 13.0246 3.48186 13.1484 3.80048C13.2419 4.04104 13.3531 4.4025 13.3835 5.06809C13.4163 5.78793 13.4233 6.00385 13.4233 7.82666C13.4233 9.64943 13.4163 9.86535 13.3835 10.5852C13.3531 11.2508 13.2419 11.6122 13.1484 11.8528C13.0246 12.1715 12.8766 12.3989 12.6377 12.6377C12.3989 12.8766 12.1715 13.0246 11.8528 13.1484C11.6122 13.2419 11.2508 13.3531 10.5852 13.3835C9.86546 13.4163 9.64957 13.4233 7.82666 13.4233C6.00372 13.4233 5.78785 13.4163 5.06809 13.3835C4.4025 13.3531 4.04104 13.2419 3.80048 13.1484C3.48183 13.0246 3.25442 12.8766 3.01552 12.6377C2.77665 12.3989 2.6287 12.1715 2.50488 11.8528C2.41139 11.6122 2.30018 11.2508 2.2698 10.5852C2.23696 9.86535 2.23002 9.64943 2.23002 7.82666C2.23002 6.00385 2.23696 5.78793 2.2698 5.06809C2.30018 4.4025 2.41139 4.04104 2.50488 3.80048C2.6287 3.48186 2.77665 3.25442 3.01552 3.01555C3.25442 2.77668 3.48183 2.62872 3.80048 2.50488C4.04104 2.41142 4.4025 2.30021 5.06809 2.26983C5.78793 2.23699 6.00385 2.23005 7.82666 2.23005Z" fill="white"/>
<path d="M7.8259 10.1024C6.56913 10.1024 5.55034 9.08362 5.55034 7.82687C5.55034 6.5701 6.56913 5.55131 7.8259 5.55131C9.08264 5.55131 10.1014 6.5701 10.1014 7.82687C10.1014 9.08362 9.08264 10.1024 7.8259 10.1024ZM7.8259 4.32129C5.8898 4.32129 4.32031 5.89077 4.32031 7.82687C4.32031 9.76295 5.8898 11.3324 7.8259 11.3324C9.76197 11.3324 11.3315 9.76295 11.3315 7.82687C11.3315 5.89077 9.76197 4.32129 7.8259 4.32129Z" fill="white"/>
<path d="M12.2907 4.18247C12.2907 4.6349 11.924 5.00165 11.4715 5.00165C11.0191 5.00165 10.6523 4.6349 10.6523 4.18247C10.6523 3.73003 11.0191 3.36328 11.4715 3.36328C11.924 3.36328 12.2907 3.73003 12.2907 4.18247Z" fill="white"/>
</svg>
