<svg width="16" height="16" viewBox="0 0 16 16" fill="none" xmlns="http://www.w3.org/2000/svg">
<path d="M3.9338 15.1997H1.0313V5.85282H3.9338V15.1997ZM2.48099 4.57782C1.55286 4.57782 0.800049 3.80907 0.800049 2.88095C0.800049 2.43514 0.977147 2.00758 1.29238 1.69235C1.60762 1.37711 2.03517 1.20001 2.48099 1.20001C2.9268 1.20001 3.35435 1.37711 3.66959 1.69235C3.98483 2.00758 4.16192 2.43514 4.16192 2.88095C4.16192 3.80907 3.4088 4.57782 2.48099 4.57782ZM14.7969 15.1997H11.9007V10.6497C11.9007 9.56532 11.8788 8.1747 10.3916 8.1747C8.88255 8.1747 8.6513 9.35282 8.6513 10.5716V15.1997H5.75192V5.85282H8.53567V7.12782H8.5763C8.9638 6.39345 9.91036 5.61845 11.3225 5.61845C14.26 5.61845 14.8 7.55282 14.8 10.0653V15.1997H14.7969Z" fill="white"/>
</svg>
