<svg width="65" height="20" viewBox="0 0 65 20" fill="none" xmlns="http://www.w3.org/2000/svg">
<path d="M64.7803 5.89871C64.4834 5.06651 63.9303 4.34553 63.1976 3.83563C62.4649 3.32573 61.5888 3.05215 60.6908 3.05277H60.6519C60.0684 3.05214 59.4907 3.16767 58.954 3.39239C58.4172 3.6171 57.9324 3.94633 57.5289 4.36018C57.1255 3.9464 56.6409 3.61721 56.1043 3.3925C55.5677 3.16779 54.9903 3.05221 54.4069 3.05277H54.368C53.3314 3.05169 52.329 3.41706 51.5443 4.08205V3.75691C51.5331 3.59902 51.4616 3.45113 51.3438 3.34301C51.2262 3.23489 51.071 3.17457 50.9099 3.1742H48.0173C47.9331 3.1742 47.8498 3.19049 47.772 3.22215C47.6942 3.25381 47.6236 3.30021 47.5642 3.3587C47.5047 3.41719 47.4575 3.48661 47.4254 3.56301C47.3933 3.6394 47.3768 3.72127 47.377 3.80391V19.252C47.377 19.4187 47.4444 19.5787 47.5645 19.6965C47.6846 19.8145 47.8475 19.8807 48.0173 19.8807H50.9099C51.0644 19.8804 51.2136 19.8252 51.3298 19.7253C51.4461 19.6254 51.5215 19.4875 51.5422 19.3372V8.25012C51.5422 8.21285 51.5422 8.17565 51.5422 8.13845C51.563 7.88812 51.6754 7.65359 51.8589 7.47852C52.0423 7.30345 52.2843 7.19972 52.5397 7.18652H53.0753C53.2979 7.20192 53.5107 7.28279 53.6858 7.41865C53.8114 7.51892 53.9121 7.64605 53.9802 7.79032C54.0483 7.93452 54.082 8.09212 54.0787 8.25105L54.0897 19.2843C54.0897 19.4511 54.1571 19.6111 54.2772 19.7292C54.3973 19.8473 54.5601 19.9137 54.7301 19.914H57.6226C57.7877 19.9149 57.9469 19.8533 58.0668 19.7417C58.1867 19.6303 58.258 19.4776 58.266 19.3156V8.23832C58.2622 8.06325 58.3035 7.89012 58.3859 7.73485C58.4684 7.57959 58.5894 7.44725 58.7378 7.35012C58.8976 7.24872 59.0807 7.18812 59.2704 7.17379H59.805C60.0806 7.18799 60.3396 7.30719 60.5269 7.50599C60.7143 7.70479 60.8153 7.96752 60.8085 8.23832L60.8204 19.2569C60.8204 19.4236 60.8879 19.5835 61.008 19.7015C61.1281 19.8193 61.291 19.8856 61.4608 19.8856H64.3533C64.4376 19.8857 64.5209 19.8696 64.5987 19.838C64.6765 19.8065 64.7472 19.7602 64.8068 19.7018C64.8664 19.6434 64.9137 19.5741 64.9459 19.4977C64.9782 19.4213 64.9948 19.3395 64.9948 19.2569V7.40692C65.0204 6.89599 64.9459 6.38499 64.7753 5.90165" fill="#00BAF2"/>
<path d="M45.1674 3.21516H43.5107V0.577809C43.5111 0.502151 43.4963 0.42716 43.467 0.357138C43.4379 0.287116 43.3949 0.223438 43.3406 0.169758C43.2862 0.116077 43.2217 0.07345 43.1506 0.0443187C43.0795 0.0151875 43.0032 0.000127901 42.9261 0C42.8892 0.000425909 42.8524 0.00469401 42.8164 0.0127319C40.9781 0.5024 41.3482 3.00558 37.9938 3.21908H37.6676C37.6207 3.21917 37.5738 3.22442 37.528 3.23475C37.3866 3.26624 37.2602 3.34395 37.1696 3.45514C37.079 3.56634 37.0296 3.70443 37.0293 3.84683V6.68693C37.0293 6.85373 37.0967 7.0138 37.2168 7.13187C37.3369 7.24993 37.4997 7.31633 37.6696 7.3166H39.4181V19.3771C39.418 19.4588 39.4343 19.5397 39.466 19.6152C39.4977 19.6907 39.5443 19.7593 39.603 19.8171C39.6617 19.875 39.7314 19.9209 39.8082 19.9523C39.885 19.9837 39.9674 19.9999 40.0505 20H42.9152C43.0833 19.9997 43.2444 19.934 43.3631 19.8172C43.4818 19.7005 43.5485 19.5422 43.5485 19.3771V7.3176H45.1714C45.2555 7.31747 45.3388 7.30107 45.4164 7.26933C45.494 7.23767 45.5645 7.1912 45.6239 7.13273C45.6833 7.07427 45.7303 7.00487 45.7624 6.92853C45.7944 6.85227 45.8109 6.77047 45.8107 6.68787V3.84781C45.8107 3.68132 45.7434 3.52165 45.6235 3.40392C45.5036 3.28619 45.341 3.22005 45.1714 3.22005" fill="#00BAF2"/>
<path d="M34.7453 3.21547H31.8526C31.683 3.21547 31.5203 3.28157 31.4002 3.39927C31.2802 3.51697 31.2125 3.67664 31.2123 3.84322V9.72607C31.2097 9.90087 31.1372 10.0676 31.0105 10.1903C30.8838 10.3131 30.7131 10.382 30.5351 10.3823H29.3202C29.231 10.3823 29.1427 10.365 29.0604 10.3315C28.978 10.2979 28.9032 10.2488 28.8402 10.1869C28.7772 10.1249 28.7273 10.0514 28.6932 9.97047C28.6592 9.88953 28.6418 9.80287 28.6419 9.71533L28.629 3.8393C28.6287 3.67272 28.5611 3.51306 28.441 3.39536C28.321 3.27766 28.1582 3.21155 27.9885 3.21155H25.096C25.0119 3.21142 24.9286 3.22756 24.8509 3.25904C24.7731 3.29051 24.7024 3.33672 24.6429 3.39501C24.5834 3.4533 24.536 3.52254 24.5037 3.59878C24.4714 3.67501 24.4548 3.75674 24.4546 3.8393V10.2853C24.4314 10.842 24.5257 11.3974 24.7318 11.9165C24.9379 12.4357 25.2512 12.9073 25.652 13.3017C26.0529 13.6961 26.5325 14.0047 27.0609 14.2081C27.5892 14.4116 28.1547 14.5054 28.7217 14.4837C28.7217 14.4837 30.5939 14.4837 30.6517 14.4955C30.8171 14.5122 30.9702 14.5883 31.0819 14.7091C31.1935 14.8299 31.2558 14.9869 31.2568 15.1501C31.2578 15.3132 31.1975 15.4709 31.0872 15.5931C30.9771 15.7152 30.8248 15.793 30.6597 15.8117L30.6119 15.8195L26.3747 15.8352C26.2049 15.8352 26.042 15.9014 25.9219 16.0193C25.8018 16.1373 25.7344 16.2972 25.7344 16.4639V19.304C25.7344 19.4707 25.8018 19.6307 25.9219 19.7486C26.042 19.8665 26.2049 19.9327 26.3747 19.9327H31.1156C31.6828 19.9552 32.2485 19.8621 32.7772 19.6593C33.306 19.4565 33.7862 19.1483 34.1876 18.7543C34.5891 18.3602 34.903 17.8888 35.1097 17.3697C35.3164 16.8506 35.4113 16.2951 35.3886 15.7382V3.84322C35.3886 3.7607 35.372 3.67899 35.3398 3.60276C35.3076 3.52654 35.2604 3.45729 35.201 3.39898C35.1415 3.34068 35.0709 3.29446 34.9932 3.26297C34.9155 3.23148 34.8323 3.21534 34.7482 3.21547" fill="#002970"/>
<path d="M6.96056 3.2143H0.628791C0.462133 3.2143 0.302297 3.2793 0.184451 3.39501C0.0666058 3.51072 0.000399109 3.66765 0.000399109 3.83128V6.61651C-0.000133036 6.62008 -0.000133036 6.62372 0.000399109 6.62728C0.000399109 6.64687 0.000399109 6.6596 0.000399109 6.67432V19.2833C-0.00457599 19.4425 0.0537533 19.5973 0.163037 19.7151C0.272321 19.8327 0.423977 19.9041 0.585895 19.9139H3.53733C3.70716 19.9139 3.87003 19.8477 3.99012 19.7298C4.11021 19.6119 4.17768 19.4519 4.17768 19.2852L4.18866 14.9615H6.96056C7.48425 14.9862 8.00746 14.9032 8.49657 14.7176C8.98568 14.5321 9.42983 14.2481 9.80046 13.8839C10.1712 13.5199 10.4601 13.0836 10.6489 12.6033C10.8376 12.123 10.9219 11.6093 10.8964 11.095V7.07972C10.922 6.56524 10.8378 6.05116 10.6492 5.5705C10.4606 5.08984 10.1717 4.6532 9.80106 4.28858C9.4305 3.92398 8.98635 3.63946 8.49718 3.45327C8.008 3.26709 7.48458 3.18336 6.96056 3.20744V3.2143ZM6.70619 8.41946V10.1745C6.70619 10.3511 6.63476 10.5207 6.5076 10.6457C6.38043 10.7707 6.20791 10.8411 6.02793 10.8414H4.18866V7.33532H6.02793C6.20791 7.33559 6.38043 7.40599 6.5076 7.53106C6.63476 7.65606 6.70619 7.82559 6.70619 8.00226V8.41946Z" fill="#002970"/>
<path d="M18.263 3.23092H14.2443C14.0797 3.22587 13.9198 3.28474 13.7992 3.39474C13.6785 3.50475 13.607 3.65702 13.5999 3.81852V4.92419V4.94671C13.5999 4.95357 13.5999 4.9614 13.5999 4.9614V6.48623C13.6064 6.65795 13.682 6.82012 13.8101 6.93725C13.9381 7.05439 14.1083 7.11685 14.2832 7.11105H18.1104C18.2623 7.13059 18.4026 7.20119 18.5075 7.31079C18.6124 7.42039 18.6754 7.56232 18.6859 7.71239V8.07865C18.6771 8.22525 18.6163 8.36425 18.5141 8.47159C18.412 8.57892 18.2748 8.64772 18.1264 8.66625H16.2312C15.6783 8.62599 15.123 8.69845 14.5999 8.87905C14.0769 9.05965 13.5977 9.34445 13.1921 9.71565C12.7866 10.0869 12.4637 10.5364 12.2437 11.036C12.0235 11.5356 11.9111 12.0745 11.9133 12.6189V15.9309C11.8829 16.4585 11.9672 16.9863 12.1604 17.4795C12.3536 17.9726 12.6515 18.4197 13.0342 18.7912C13.4169 19.1627 13.8756 19.45 14.3801 19.6341C14.8845 19.8182 15.423 19.8949 15.9599 19.8591H21.2144C21.6523 19.8733 22.0781 19.7163 22.3981 19.4225C22.7181 19.1287 22.9062 18.7221 22.921 18.2921V7.50079C22.921 4.88403 21.5466 3.23092 18.263 3.23092ZM18.7248 15.1044V15.5481C18.7243 15.5833 18.7203 15.6183 18.7128 15.6528C18.7069 15.6843 18.6979 15.7151 18.6859 15.7449C18.6364 15.8727 18.548 15.9823 18.4327 16.0589C18.3173 16.1355 18.1808 16.1753 18.0416 16.1729H16.8357C16.6606 16.1787 16.4905 16.116 16.3626 15.9987C16.2346 15.8813 16.1594 15.7189 16.1534 15.5471V15.0104V14.9908V13.5629V13.1134C16.1607 12.9423 16.2364 12.7809 16.3641 12.6643C16.4918 12.5477 16.6613 12.4853 16.8357 12.4905H18.0425C18.2178 12.485 18.388 12.5479 18.5161 12.6653C18.6441 12.7828 18.7195 12.9453 18.7258 13.1173L18.7248 15.1044Z" fill="#002970"/>
</svg>
