<svg width="16" height="16" viewBox="0 0 16 16" fill="none" xmlns="http://www.w3.org/2000/svg">
<path d="M5.03169 15.0008C11.0694 15.0008 14.3718 9.99859 14.3718 5.66066C14.3718 5.51859 14.3718 5.37716 14.3623 5.23634C15.0047 4.77163 15.5593 4.19628 16 3.53716C15.4009 3.80263 14.7653 3.97669 14.1146 4.05363C14.7997 3.6435 15.3128 2.99794 15.5577 2.23794C14.9134 2.62028 14.2084 2.88978 13.4733 3.03475C12.8526 2.37472 11.9857 2 11.0798 2C9.27719 2 7.79397 3.48325 7.79397 5.28575C7.79397 5.53581 7.82253 5.78509 7.87903 6.02866C5.24097 5.89644 2.77966 4.64863 1.11359 2.59891C0.247219 4.09034 0.6955 6.02316 2.12991 6.98097C1.60756 6.9655 1.09644 6.82456 0.64 6.57009V6.61169C0.640437 8.16838 1.74772 9.52141 3.27359 9.82963C2.79034 9.96141 2.28319 9.98066 1.79138 9.88594C2.22034 11.2198 3.45734 12.1393 4.85825 12.1656C3.69606 13.079 2.25959 13.5751 0.781438 13.5736C0.52025 13.5731 0.259313 13.5573 0 13.5262C1.50106 14.4895 3.24813 15.0006 5.03169 14.9983" fill="white"/>
</svg>
